<?xml version="1.0" encoding="UTF-8" standalone="no"?>
<svg
   width="16"
   height="16"
   viewBox="0 0 16 16"
   version="1.1"
   id="svg8"
   sodipodi:docname="dataType-struct.svg"
   inkscape:version="1.1.1 (3bf5ae0d25, 2021-09-20)"
   xmlns:inkscape="http://www.inkscape.org/namespaces/inkscape"
   xmlns:sodipodi="http://sodipodi.sourceforge.net/DTD/sodipodi-0.dtd"
   xmlns="http://www.w3.org/2000/svg"
   xmlns:svg="http://www.w3.org/2000/svg">
  <defs
     id="defs12" />
  <sodipodi:namedview
     id="namedview10"
     pagecolor="#ffffff"
     bordercolor="#666666"
     borderopacity="1.0"
     inkscape:pageshadow="2"
     inkscape:pageopacity="0.0"
     inkscape:pagecheckerboard="0"
     showgrid="false"
     inkscape:zoom="37.69763"
     inkscape:cx="8.4885973"
     inkscape:cy="7.5468935"
     inkscape:window-width="1690"
     inkscape:window-height="1051"
     inkscape:window-x="1491"
     inkscape:window-y="766"
     inkscape:window-maximized="1"
     inkscape:current-layer="svg8"
     inkscape:snap-bbox="true"
     inkscape:bbox-nodes="true"
     inkscape:snap-page="true" />
  <path
     id="path913"
     style="stroke-width:0.23247;stroke:none;fill:#000000;fill-opacity:1"
     transform="translate(-0.58359106,-0.50401046)"
     d="M 7.3808594,2.4238281 7.3300781,2.4570312 7.2792969,2.4921875 7.5371094,3.328125 7.7929688,4.1640625 7.6464844,4.7480469 7.5,5.3320312 6.3945312,5.4765625 5.2890625,5.6230469 l -0.8125,-0.2402344 -0.8125,-0.2402344 h -0.0625 -0.0625 L 4.1308594,6.0390625 4.7246094,6.9335938 5.7617188,6.6972656 6.7988281,6.4589844 6.9121094,6.5722656 7.0234375,6.6835938 6.5644531,7.9414062 6.1054688,9.1972656 4.4179688,10.910156 2.7324219,12.625 4.5214844,11.53125 6.3105469,10.4375 6.6386719,10.056641 6.9667969,9.6757812 7.6191406,7.9882812 8.2695312,6.2988281 8.5234375,6.109375 8.7753906,5.9199219 10.013672,5.6484375 11.251953,5.375 h 0.291016 0.291015 l -0.304687,1.9179688 -0.304688,1.9179687 -0.28125,0.6972656 -0.28125,0.6972659 -0.472656,0.652343 -0.4726561,0.650391 -0.5859375,-0.138672 -0.5878906,-0.140625 -0.421875,-0.125 -0.421875,-0.125 0.5371093,0.830078 0.5390625,0.832032 0.2832032,0.002 0.2832031,0.0039 0.8125001,-0.714844 0.8125,-0.71289 0.447265,-0.738282 0.449219,-0.740234 0.353516,-1.6269531 0.353515,-1.6269531 0.164063,-1.2558594 0.162109,-1.2539063 -0.898437,0.1347657 -0.898438,0.1367187 -1.1074215,0.1582031 -1.109375,0.1582032 0.2363281,-0.625 L 9.3574219,3.7167969 9.1191406,3.2734375 8.8808594,2.828125 8.1308594,2.625 Z" />
</svg>
