<?xml version="1.0" encoding="UTF-8" standalone="no"?>
<svg
   width="16"
   height="16"
   viewBox="0 0 16 16"
   version="1.1"
   id="svg8"
   sodipodi:docname="dataType-float.svg"
   inkscape:version="1.1.1 (3bf5ae0d25, 2021-09-20)"
   xmlns:inkscape="http://www.inkscape.org/namespaces/inkscape"
   xmlns:sodipodi="http://sodipodi.sourceforge.net/DTD/sodipodi-0.dtd"
   xmlns="http://www.w3.org/2000/svg"
   xmlns:svg="http://www.w3.org/2000/svg">
  <defs
     id="defs12" />
  <sodipodi:namedview
     id="namedview10"
     pagecolor="#ffffff"
     bordercolor="#666666"
     borderopacity="1.0"
     inkscape:pageshadow="2"
     inkscape:pageopacity="0.0"
     inkscape:pagecheckerboard="0"
     showgrid="false"
     inkscape:zoom="37.69763"
     inkscape:cx="9.6557794"
     inkscape:cy="7.9978503"
     inkscape:window-width="1690"
     inkscape:window-height="1051"
     inkscape:window-x="1491"
     inkscape:window-y="766"
     inkscape:window-maximized="1"
     inkscape:current-layer="svg8"
     inkscape:snap-bbox="true"
     inkscape:bbox-nodes="true"
     inkscape:snap-page="true"
     inkscape:snap-global="false" />
  <path
     d="M 4.0894852,9.2919661 H 6.1280613 V 11.91747 H 4.0894852 Z"
     id="path4756"
     style="stroke-width:1.53498;fill:#000000;fill-opacity:1;stroke:none" />
  <path
     d="m 9.5533607,4.1826605 q -0.8142012,0 -1.226521,0.8037627 -0.4071006,0.7985435 -0.4071006,2.4060689 0,1.6023062 0.4071006,2.4060687 0.4123198,0.7985432 1.226521,0.7985432 0.8194203,0 1.2265213,-0.7985432 0.41232,-0.8037625 0.41232,-2.4060687 0,-1.6075254 -0.41232,-2.4060689 Q 10.372781,4.1826605 9.5533607,4.1826605 Z m 0,-0.8350781 q 1.3100293,0 1.9989683,1.0386284 0.694159,1.0334092 0.694159,3.0062813 0,1.9676529 -0.694159,3.0062809 -0.688939,1.033409 -1.9989683,1.033409 -1.3100288,0 -2.0041875,-1.033409 -0.6889395,-1.038628 -0.6889395,-3.0062809 0,-1.9728721 0.6889395,-3.0062813 0.6941587,-1.0386284 2.0041875,-1.0386284 z"
     id="path4758"
     style="stroke-width:0.801678;fill:#000000;fill-opacity:1;stroke:none" />
</svg>
