<?xml version="1.0" encoding="UTF-8" standalone="no"?>
<svg
   width="16"
   height="16"
   viewBox="0 0 16 16"
   version="1.1"
   id="svg8"
   sodipodi:docname="dataType-boolean.svg"
   inkscape:version="1.1.1 (3bf5ae0d25, 2021-09-20)"
   xmlns:inkscape="http://www.inkscape.org/namespaces/inkscape"
   xmlns:sodipodi="http://sodipodi.sourceforge.net/DTD/sodipodi-0.dtd"
   xmlns="http://www.w3.org/2000/svg"
   xmlns:svg="http://www.w3.org/2000/svg">
  <defs
     id="defs12" />
  <sodipodi:namedview
     id="namedview10"
     pagecolor="#ffffff"
     bordercolor="#666666"
     borderopacity="1.0"
     inkscape:pageshadow="2"
     inkscape:pageopacity="0.0"
     inkscape:pagecheckerboard="0"
     showgrid="false"
     inkscape:zoom="51.6875"
     inkscape:cx="8.0096735"
     inkscape:cy="8"
     inkscape:window-width="1690"
     inkscape:window-height="1051"
     inkscape:window-x="1491"
     inkscape:window-y="766"
     inkscape:window-maximized="1"
     inkscape:current-layer="svg8"
     inkscape:snap-bbox="true"
     inkscape:bbox-nodes="true"
     inkscape:snap-page="true" />
  <path
     d="m 4.8182145,6.8216482 c 0.1611895,0 0.283115,0.1322581 0.3657762,0.3967742 0.1653226,0.4959677 0.9602612,1.5565272 1.0305233,1.5565272 0.05373,0 0.1095262,-0.04133 0.1673892,-0.123992 C 7.543294,6.944002 8.6178908,5.728881 9.6056935,5.0055948 10.023132,4.699748 10.430239,4.5468246 10.827014,4.5468246 c 0.524899,0 0.841078,0.016532 0.948538,0.049597 0.04546,0.012399 0.0682,0.064062 0.0682,0.1549899 0,0.074395 -0.04753,0.1673891 -0.14259,0.2789819 -2.6575607,3.0502015 -4.2405246,5.0340726 -4.7488916,5.9516126 -0.1735887,0.314113 -0.5744959,0.471169 -1.2027217,0.471169 -0.2066533,0 -0.4236392,-0.05373 -0.6509577,-0.161189 C 5.003531,11.242386 4.838208,10.926209 4.6026233,10.343447 4.3050406,9.6077619 3.479104,8.1504284 3.479104,7.5965978 c 0,-0.2025202 0.1446573,-0.3699093 0.4339717,-0.5021674 0.3967742,-0.1818548 0.6943549,-0.2727822 0.892742,-0.2727822 z"
     id="path2172"
     sodipodi:nodetypes="scsccscsccsccscss"
     style="stroke-width:0.793548;fill:#000000;fill-opacity:1;stroke:none" />
</svg>
